<svg width="147" height="147" viewBox="0 0 147 147" fill="none" xmlns="http://www.w3.org/2000/svg">
<circle cx="73.4658" cy="73.5059" r="50" fill="#FECE4C"/>
<rect x="146.868" y="68.5078" width="10" height="16" rx="2" transform="rotate(90 146.868 68.5078)" fill="#D94D14"/>
<rect x="139.485" y="106.009" width="10" height="16" rx="2" transform="rotate(120.15 139.485 106.009)" fill="#D94D14"/>
<rect x="114.322" y="134.692" width="10" height="16" rx="2" transform="rotate(150.061 114.322 134.692)" fill="#D94D14"/>
<rect x="77.814" y="146.943" width="10" height="16" rx="2" transform="rotate(-179.558 77.814 146.943)" fill="#D94D14"/>
<rect x="40.4009" y="139.235" width="10" height="16" rx="2" transform="rotate(-149.428 40.4009 139.235)" fill="#D94D14"/>
<rect x="11.9741" y="113.894" width="10" height="16" rx="2" transform="rotate(-119.517 11.9741 113.894)" fill="#D94D14"/>
<rect y="77.3579" width="10" height="16" rx="2" transform="rotate(-89.1153 0 77.3579)" fill="#D94D14"/>
<rect x="8.05957" y="39.8013" width="10" height="16" rx="2" transform="rotate(-58.7955 8.05957 39.8013)" fill="#D94D14"/>
<rect x="33.6094" y="11.6553" width="10" height="16" rx="2" transform="rotate(-28.8825 33.6094 11.6553)" fill="#D94D14"/>
<rect x="70.479" width="10" height="16" rx="2" transform="rotate(1.54802 70.479 0)" fill="#D94D14"/>
<rect x="107.575" y="8.2998" width="10" height="16" rx="2" transform="rotate(31.6257 107.575 8.2998)" fill="#D94D14"/>
<rect x="135.606" y="34.0923" width="10" height="16" rx="2" transform="rotate(61.5407 135.606 34.0923)" fill="#D94D14"/>
<circle cx="111.466" cy="111.506" r="35" fill="white"/>
<path d="M135.981 111.547C135.981 124.975 125.096 135.86 111.668 135.86C98.2399 135.86 87.3545 124.975 87.3545 111.547C87.3545 98.1193 98.2399 87.2339 111.668 87.2339C125.096 87.2339 135.981 98.1193 135.981 111.547ZM98.0811 111.547C98.0811 119.051 104.164 125.134 111.668 125.134C119.172 125.134 125.255 119.051 125.255 111.547C125.255 104.043 119.172 97.9605 111.668 97.9605C104.164 97.9605 98.0811 104.043 98.0811 111.547Z" fill="#D94D14"/>
<path d="M119.668 111.547C119.668 113.279 119.106 114.963 118.068 116.348C117.029 117.733 115.569 118.743 113.907 119.228C112.245 119.712 110.471 119.644 108.85 119.035C107.23 118.425 105.851 117.306 104.921 115.846C103.991 114.386 103.559 112.664 103.691 110.938C103.823 109.212 104.511 107.575 105.653 106.273C106.794 104.972 108.327 104.075 110.021 103.719C111.715 103.362 113.479 103.565 115.048 104.296L112.441 109.888C112.082 109.721 111.679 109.674 111.291 109.756C110.903 109.837 110.553 110.042 110.291 110.34C110.03 110.638 109.873 111.013 109.842 111.408C109.812 111.803 109.911 112.197 110.124 112.531C110.337 112.865 110.652 113.121 111.023 113.261C111.394 113.4 111.8 113.416 112.18 113.305C112.561 113.194 112.895 112.963 113.133 112.646C113.37 112.329 113.499 111.944 113.499 111.547H119.668Z" fill="#D94D14"/>
<rect x="142.838" y="107.171" width="8.75279" height="8.26652" rx="0.972532" transform="rotate(90 142.838 107.171)" fill="#D94D14"/>
<rect x="139.462" y="126.33" width="8.75279" height="8.26652" rx="0.972532" transform="rotate(126.033 139.462 126.33)" fill="#D94D14"/>
<rect x="125.473" y="139.828" width="8.75279" height="8.26652" rx="0.972532" transform="rotate(161.804 125.473 139.828)" fill="#D94D14"/>
<rect x="106.076" y="142.528" width="8.75279" height="8.26652" rx="0.972532" transform="rotate(-161.804 106.076 142.528)" fill="#D94D14"/>
<rect x="88.9404" y="133.321" width="8.75279" height="8.26652" rx="0.972532" transform="rotate(-125.824 88.9404 133.321)" fill="#D94D14"/>
<rect x="80.4658" y="115.679" width="8.75279" height="8.26652" rx="0.972532" transform="rotate(-89.5577 80.4658 115.679)" fill="#D94D14"/>
<rect x="83.9736" y="96.5771" width="8.75279" height="8.26652" rx="0.972532" transform="rotate(-53.5487 83.9736 96.5771)" fill="#D94D14"/>
<rect x="98.0811" y="83.145" width="8.75279" height="8.26652" rx="0.972532" transform="rotate(-17.5479 98.0811 83.145)" fill="#D94D14"/>
<rect x="117.464" y="80.6001" width="8.75279" height="8.26652" rx="0.972532" transform="rotate(18.6284 117.464 80.6001)" fill="#D94D14"/>
<rect x="134.549" y="89.9326" width="8.75279" height="8.26652" rx="0.972532" transform="rotate(54.5952 134.549 89.9326)" fill="#D94D14"/>
</svg>
