<svg width="918" height="201" viewBox="0 0 918 201" fill="none" xmlns="http://www.w3.org/2000/svg">
<path d="M62.68 200.27C50.42 200.27 39.61 197.61 30.25 192.28C20.89 186.96 13.51 179.54 8.11 170.02C2.7 160.5 0 149.61 0 137.35C0 125.09 2.7 114.2 8.11 104.68C13.51 95.1602 20.89 87.7402 30.25 82.4202C39.6 77.1002 50.42 74.4302 62.68 74.4302C78.01 74.4302 90.91 78.4202 101.4 86.4102C111.89 94.4002 118.58 105.41 121.49 119.44H88.82C87.21 113.63 84.02 109.08 79.26 105.77C74.5 102.47 68.89 100.81 62.44 100.81C53.89 100.81 46.63 104.04 40.66 110.49C34.69 116.94 31.71 125.9 31.71 137.35C31.71 148.8 34.69 157.76 40.66 164.21C46.63 170.67 53.89 173.89 62.44 173.89C68.89 173.89 74.5 172.28 79.26 169.05C84.02 165.83 87.2 161.23 88.82 155.26H121.49C118.59 168.81 111.89 179.7 101.4 187.93C90.91 196.16 78.01 200.27 62.68 200.27Z" fill="#333333"/>
<path d="M200.62 200.27C189 200.27 178.56 197.61 169.28 192.28C160 186.96 152.66 179.57 147.26 170.14C141.85 160.7 139.15 149.77 139.15 137.35C139.15 124.93 141.89 114 147.38 104.56C152.86 95.1202 160.24 87.7402 169.52 82.4202C178.8 77.1002 189.24 74.4302 200.86 74.4302C212.48 74.4302 222.68 77.0902 231.96 82.4202C241.24 87.7402 248.58 95.1302 253.98 104.56C259.38 114 262.09 124.93 262.09 137.35C262.09 149.77 259.39 160.7 253.98 170.14C248.57 179.58 241.19 186.96 231.84 192.28C222.48 197.6 212.08 200.27 200.62 200.27ZM200.62 173.41C208.69 173.41 215.7 170.38 221.67 164.33C227.64 158.28 230.62 149.29 230.62 137.35C230.62 125.41 227.63 116.42 221.67 110.37C215.7 104.32 208.76 101.29 200.86 101.29C192.96 101.29 185.57 104.32 179.68 110.37C173.79 116.42 170.85 125.42 170.85 137.35C170.85 149.28 173.79 158.28 179.68 164.33C185.57 170.38 192.54 173.41 200.61 173.41H200.62Z" fill="#333333"/>
<path d="M283.62 197.37V77.3399H310.97L313.39 97.6699C317.1 90.5699 322.47 84.9299 329.48 80.7299C336.5 76.5399 344.76 74.4399 354.28 74.4399C369.12 74.4399 380.66 79.1199 388.89 88.4799C397.12 97.8399 401.23 111.55 401.23 129.62V197.38H370.25V132.52C370.25 122.2 368.15 114.29 363.96 108.8C359.76 103.32 353.23 100.57 344.36 100.57C335.49 100.57 328.51 103.64 322.94 109.77C317.37 115.9 314.59 124.45 314.59 135.42V197.37H283.61H283.62Z" fill="#333333"/>
<path d="M424.7 197.37V77.3399H452.05L454.47 97.6699C458.18 90.5699 463.55 84.9299 470.56 80.7299C477.58 76.5399 485.84 74.4399 495.36 74.4399C510.2 74.4399 521.74 79.1199 529.97 88.4799C538.2 97.8399 542.31 111.55 542.31 129.62V197.38H511.33V132.52C511.33 122.2 509.23 114.29 505.04 108.8C500.84 103.32 494.31 100.57 485.44 100.57C476.57 100.57 469.59 103.64 464.02 109.77C458.45 115.9 455.67 124.45 455.67 135.42V197.37H424.69H424.7Z" fill="#333333"/>
<path d="M763.25 200.27C750.99 200.27 740.18 197.61 730.82 192.28C721.46 186.96 714.08 179.54 708.68 170.02C703.27 160.5 700.57 149.61 700.57 137.35C700.57 125.09 703.27 114.2 708.68 104.68C714.08 95.1602 721.46 87.7402 730.82 82.4202C740.17 77.1002 750.99 74.4302 763.25 74.4302C778.58 74.4302 791.48 78.4202 801.97 86.4102C812.46 94.4002 819.15 105.41 822.06 119.44H789.39C787.78 113.63 784.59 109.08 779.83 105.77C775.07 102.47 769.46 100.81 763.01 100.81C754.46 100.81 747.2 104.04 741.23 110.49C735.26 116.94 732.28 125.9 732.28 137.35C732.28 148.8 735.26 157.76 741.23 164.21C747.2 170.67 754.46 173.89 763.01 173.89C769.46 173.89 775.07 172.28 779.83 169.05C784.59 165.83 787.77 161.23 789.39 155.26H822.06C819.16 168.81 812.46 179.7 801.97 187.93C791.48 196.16 778.58 200.27 763.25 200.27Z" fill="#333333"/>
<path d="M895.39 197.37C882.81 197.37 872.72 194.31 865.14 188.17C857.56 182.04 853.77 171.15 853.77 155.5V103.23H833.2V77.3399H853.77L857.4 45.1499H884.75V77.3399H917.18V103.23H884.75V155.74C884.75 161.55 886 165.54 888.5 167.72C891 169.9 895.31 170.99 901.45 170.99H916.45V197.37H895.4H895.39Z" fill="#333333"/>
<path d="M624.11 200.27C612.01 200.27 601.28 197.69 591.92 192.53C582.56 187.37 575.22 180.11 569.9 170.75C564.58 161.4 561.91 150.58 561.91 138.32C561.91 126.06 564.53 114.85 569.77 105.17C575.01 95.4902 582.27 87.9502 591.55 82.5402C600.83 77.1402 611.76 74.4302 624.34 74.4302C636.11 74.4302 646.52 77.0102 655.56 82.1702C664.59 87.3402 671.65 94.3902 676.73 103.35C681.81 112.3 684.35 122.27 684.35 133.24C684.35 135.02 684.31 136.87 684.23 138.81C684.15 140.75 684.02 142.77 683.87 144.86H592.64C593.28 154.22 596.55 161.56 602.44 166.88C608.33 172.2 615.47 174.87 623.86 174.87C630.15 174.87 635.44 173.46 639.71 170.63C643.98 167.81 647.17 164.14 649.27 159.62H680.73C678.47 167.2 674.72 174.1 669.48 180.31C664.24 186.52 657.78 191.4 650.12 194.95C642.45 198.5 633.79 200.27 624.1 200.27H624.11ZM624.35 99.6002C616.77 99.6002 610.07 101.74 604.26 106.01C598.45 110.29 594.74 116.78 593.13 125.49H652.9C652.42 117.59 649.51 111.3 644.19 106.61C638.87 101.93 632.25 99.5902 624.35 99.5902V99.6002Z" fill="#D94D14"/>
<path d="M714.41 55.5898C710.87 58.3898 705.66 57.5998 702.74 54.1598C664.79 9.45984 597.63 3.74984 552.68 41.3998C549.22 44.2998 543.95 44.1998 540.94 40.8398C537.81 37.3498 538.2 31.9998 541.76 28.9998C593.77 -14.8502 671.75 -8.22015 715.61 43.7898C718.61 47.3398 718.09 52.6898 714.42 55.5998L714.41 55.5898Z" fill="#D94D14"/>
<path d="M685.28 76.4C681.82 79.32 676.61 78.66 673.56 75.31C648.15 47.45 604.89 45.21 576.74 70.3C573.36 73.31 568.11 73.43 564.97 70.17C561.83 66.91 561.92 61.41 565.38 58.29C600.38 26.73 654.54 29.53 686.1 64.53C689.22 67.99 688.87 73.36 685.28 76.38V76.4Z" fill="#D94D14"/>
</svg>
