<svg width="160" height="120" viewBox="0 0 160 120" fill="none" xmlns="http://www.w3.org/2000/svg">
<rect x="19" y="33" width="141" height="87" rx="12" fill="#FABF61"/>
<circle cx="33" cy="33" r="33" fill="#6ADBD6"/>
<path d="M66 33C66 27.364 64.5565 21.8219 61.8072 16.902C59.0579 11.9821 55.0943 7.84833 50.2943 4.89469C45.4942 1.94104 40.0177 0.265978 34.3867 0.029148C28.7557 -0.207682 23.1579 1.00162 18.1268 3.54178C13.0957 6.08195 8.79897 9.86832 5.64624 14.54C2.4935 19.2117 0.589782 24.613 0.116541 30.2291C-0.356701 35.8451 0.616304 41.4889 2.94281 46.6222C5.26932 51.7556 8.8718 56.2076 13.4069 59.5539L33 33H66Z" fill="#F46F28"/>
<path d="M61.9345 48.868C64.0183 45.0683 65.3333 40.8953 65.8044 36.5874C66.2755 32.2794 65.8935 27.9209 64.6802 23.7606L33 33L61.9345 48.868Z" fill="#1B5247"/>
<path d="M26.9115 106.867C26.0098 107.468 25.7662 108.687 26.3673 109.588C26.9684 110.49 28.1868 110.734 29.0885 110.133L28 108.5L26.9115 106.867ZM56.5 89.5L57.9938 88.2275C57.3487 87.4703 56.2392 87.3155 55.4115 87.8673L56.5 89.5ZM68 103L66.5062 104.272C66.9388 104.78 67.5997 105.034 68.2609 104.945C68.9221 104.856 69.4929 104.438 69.7763 103.834L68 103ZM79.5 78.5L80.9194 77.1451C80.4724 76.6768 79.8232 76.4591 79.1842 76.5633C78.5452 76.6675 77.9988 77.0802 77.7237 77.6662L79.5 78.5ZM90 89.5L88.5806 90.8549C89.0016 91.2959 89.6036 91.5162 90.2098 91.451C90.816 91.3858 91.3575 91.0425 91.6751 90.5221L90 89.5ZM108 60L109.839 59.3157C109.577 58.6114 108.936 58.1186 108.188 58.0467C107.44 57.9748 106.716 58.3364 106.325 58.9779L108 60ZM116 81.5L114.161 82.1843C114.402 82.8313 114.965 83.3042 115.643 83.4296C116.322 83.555 117.017 83.3145 117.473 82.7963L116 81.5ZM150.958 43.875C150.889 42.7935 149.957 41.9727 148.875 42.0417L131.25 43.1667C130.169 43.2357 129.348 44.1684 129.417 45.25C129.486 46.3315 130.419 47.1523 131.5 47.0832L147.167 46.0833L148.167 61.7495C148.236 62.831 149.168 63.6518 150.25 63.5828C151.331 63.5138 152.152 62.581 152.083 61.4995L150.958 43.875ZM28 108.5L29.0885 110.133L57.5885 91.1327L56.5 89.5L55.4115 87.8673L26.9115 106.867L28 108.5ZM56.5 89.5L55.0062 90.7725L66.5062 104.272L68 103L69.4938 101.728L57.9938 88.2275L56.5 89.5ZM68 103L69.7763 103.834L81.2763 79.3338L79.5 78.5L77.7237 77.6662L66.2237 102.166L68 103ZM79.5 78.5L78.0806 79.8549L88.5806 90.8549L90 89.5L91.4194 88.1451L80.9194 77.1451L79.5 78.5ZM90 89.5L91.6751 90.5221L109.675 61.0221L108 60L106.325 58.9779L88.3249 88.4779L90 89.5ZM108 60L106.161 60.6843L114.161 82.1843L116 81.5L117.839 80.8157L109.839 59.3157L108 60ZM116 81.5L117.473 82.7963L150.473 45.2963L149 44L147.527 42.7037L114.527 80.2037L116 81.5Z" fill="#D94D14"/>
</svg>
