<svg width="122" height="91" viewBox="0 0 122 91" fill="none" xmlns="http://www.w3.org/2000/svg">
<circle cx="98.945" cy="35.6154" r="16.6154" fill="#D9D9D9"/>
<path d="M76 77.5495C76 64.8773 86.2728 54.6045 98.9451 54.6045V54.6045C111.617 54.6045 121.89 64.8773 121.89 77.5496V91.0001H76V77.5495Z" fill="#D94D14"/>
<rect x="83.9121" y="73.5933" width="9.49451" height="11.0769" fill="#414141"/>
<rect x="83.9121" y="70.4287" width="9.49451" height="2.37363" fill="#414141"/>
<circle cx="22.945" cy="35.6154" r="16.6154" fill="#D9D9D9"/>
<path d="M0 77.5495C0 64.8773 10.2728 54.6045 22.9451 54.6045V54.6045C35.6173 54.6045 45.8901 64.8773 45.8901 77.5496V91.0001H0V77.5495Z" fill="#D94D14"/>
<rect x="7.91211" y="73.5933" width="9.49451" height="11.0769" fill="#414141"/>
<rect x="7.91211" y="70.4287" width="9.49451" height="2.37363" fill="#414141"/>
<circle cx="61" cy="21" r="21" fill="#D9D9D9"/>
<path d="M32 74C32 57.9837 44.9837 45 61 45V45C77.0163 45 90 57.9837 90 74V91H32V74Z" fill="#D94D14"/>
<rect x="42" y="69" width="12" height="14" fill="#414141"/>
<rect x="42" y="65" width="12" height="3" fill="#414141"/>
</svg>
