<svg width="210" height="182" viewBox="0 0 210 182" fill="none" xmlns="http://www.w3.org/2000/svg">
<g filter="url(#filter0_d_508_114)">
<path d="M82.5 173.244C109.735 173.244 161 91.2 161 32C113.739 32 94.5154 28 82.5 0C70.4846 28 51.2607 32 4 32C4 91.2 55.265 173.244 82.5 173.244Z" fill="#D94D14"/>
<path d="M82.5 161.122C106.265 161.122 151 91.806 151 40.0813C109.76 40.0813 92.9847 36.5864 82.5 12.1221C72.0153 36.5864 55.2404 40.0813 14.0005 40.0813C14.0005 91.806 58.7346 161.122 82.5 161.122Z" fill="white"/>
<g filter="url(#filter1_d_508_114)">
<rect x="83" y="105.064" width="21.5426" height="68.9362" rx="2" fill="#D94D14"/>
</g>
<g filter="url(#filter2_d_508_114)">
<rect x="108.133" y="75.6226" width="21.5426" height="98.3777" rx="2" fill="#D94D14"/>
</g>
<g filter="url(#filter3_d_508_114)">
<rect x="133.266" y="39" width="21.5426" height="135" rx="2" fill="#D94D14"/>
</g>
<g filter="url(#filter4_d_508_114)">
<rect x="158.399" y="63.415" width="21.5426" height="110.585" rx="2" fill="#D94D14"/>
</g>
<g filter="url(#filter5_d_508_114)">
<rect x="183.771" y="13" width="22" height="161" rx="2" fill="#D94D14"/>
</g>
<g filter="url(#filter6_d_508_114)">
<path d="M93 156.5C91.6193 156.5 90.5 157.619 90.5 159C90.5 160.381 91.6193 161.5 93 161.5V159V156.5ZM188.344 70.3121C187.412 69.2936 185.831 69.2236 184.812 70.1558L168.214 85.3469C167.196 86.2791 167.126 87.8604 168.058 88.879C168.99 89.8975 170.572 89.9674 171.59 89.0352L186.344 75.5321L199.847 90.2855C200.779 91.3041 202.36 91.374 203.379 90.4418C204.397 89.5096 204.467 87.9283 203.535 86.9097L188.344 70.3121ZM93 159V161.5C130.011 161.5 153.616 153.835 168.192 138.404C182.721 123.025 187.742 100.477 188.998 72.1105L186.5 72L184.002 71.8895C182.758 100.023 177.779 120.975 164.558 134.971C151.384 148.915 129.489 156.5 93 156.5V159Z" fill="white"/>
</g>
</g>
<defs>
<filter id="filter0_d_508_114" x="0" y="0" width="209.771" height="182" filterUnits="userSpaceOnUse" color-interpolation-filters="sRGB">
<feFlood flood-opacity="0" result="BackgroundImageFix"/>
<feColorMatrix in="SourceAlpha" type="matrix" values="0 0 0 0 0 0 0 0 0 0 0 0 0 0 0 0 0 0 127 0" result="hardAlpha"/>
<feOffset dy="4"/>
<feGaussianBlur stdDeviation="2"/>
<feComposite in2="hardAlpha" operator="out"/>
<feColorMatrix type="matrix" values="0 0 0 0 0 0 0 0 0 0 0 0 0 0 0 0 0 0 0.25 0"/>
<feBlend mode="normal" in2="BackgroundImageFix" result="effect1_dropShadow_508_114"/>
<feBlend mode="normal" in="SourceGraphic" in2="effect1_dropShadow_508_114" result="shape"/>
</filter>
<filter id="filter1_d_508_114" x="79" y="105.064" width="29.5425" height="76.936" filterUnits="userSpaceOnUse" color-interpolation-filters="sRGB">
<feFlood flood-opacity="0" result="BackgroundImageFix"/>
<feColorMatrix in="SourceAlpha" type="matrix" values="0 0 0 0 0 0 0 0 0 0 0 0 0 0 0 0 0 0 127 0" result="hardAlpha"/>
<feOffset dy="4"/>
<feGaussianBlur stdDeviation="2"/>
<feComposite in2="hardAlpha" operator="out"/>
<feColorMatrix type="matrix" values="0 0 0 0 0 0 0 0 0 0 0 0 0 0 0 0 0 0 0.25 0"/>
<feBlend mode="normal" in2="BackgroundImageFix" result="effect1_dropShadow_508_114"/>
<feBlend mode="normal" in="SourceGraphic" in2="effect1_dropShadow_508_114" result="shape"/>
</filter>
<filter id="filter2_d_508_114" x="104.133" y="75.6226" width="29.5425" height="106.377" filterUnits="userSpaceOnUse" color-interpolation-filters="sRGB">
<feFlood flood-opacity="0" result="BackgroundImageFix"/>
<feColorMatrix in="SourceAlpha" type="matrix" values="0 0 0 0 0 0 0 0 0 0 0 0 0 0 0 0 0 0 127 0" result="hardAlpha"/>
<feOffset dy="4"/>
<feGaussianBlur stdDeviation="2"/>
<feComposite in2="hardAlpha" operator="out"/>
<feColorMatrix type="matrix" values="0 0 0 0 0 0 0 0 0 0 0 0 0 0 0 0 0 0 0.25 0"/>
<feBlend mode="normal" in2="BackgroundImageFix" result="effect1_dropShadow_508_114"/>
<feBlend mode="normal" in="SourceGraphic" in2="effect1_dropShadow_508_114" result="shape"/>
</filter>
<filter id="filter3_d_508_114" x="129.266" y="39" width="29.5425" height="143" filterUnits="userSpaceOnUse" color-interpolation-filters="sRGB">
<feFlood flood-opacity="0" result="BackgroundImageFix"/>
<feColorMatrix in="SourceAlpha" type="matrix" values="0 0 0 0 0 0 0 0 0 0 0 0 0 0 0 0 0 0 127 0" result="hardAlpha"/>
<feOffset dy="4"/>
<feGaussianBlur stdDeviation="2"/>
<feComposite in2="hardAlpha" operator="out"/>
<feColorMatrix type="matrix" values="0 0 0 0 0 0 0 0 0 0 0 0 0 0 0 0 0 0 0.25 0"/>
<feBlend mode="normal" in2="BackgroundImageFix" result="effect1_dropShadow_508_114"/>
<feBlend mode="normal" in="SourceGraphic" in2="effect1_dropShadow_508_114" result="shape"/>
</filter>
<filter id="filter4_d_508_114" x="154.399" y="63.415" width="29.5425" height="118.585" filterUnits="userSpaceOnUse" color-interpolation-filters="sRGB">
<feFlood flood-opacity="0" result="BackgroundImageFix"/>
<feColorMatrix in="SourceAlpha" type="matrix" values="0 0 0 0 0 0 0 0 0 0 0 0 0 0 0 0 0 0 127 0" result="hardAlpha"/>
<feOffset dy="4"/>
<feGaussianBlur stdDeviation="2"/>
<feComposite in2="hardAlpha" operator="out"/>
<feColorMatrix type="matrix" values="0 0 0 0 0 0 0 0 0 0 0 0 0 0 0 0 0 0 0.25 0"/>
<feBlend mode="normal" in2="BackgroundImageFix" result="effect1_dropShadow_508_114"/>
<feBlend mode="normal" in="SourceGraphic" in2="effect1_dropShadow_508_114" result="shape"/>
</filter>
<filter id="filter5_d_508_114" x="179.771" y="13" width="30" height="169" filterUnits="userSpaceOnUse" color-interpolation-filters="sRGB">
<feFlood flood-opacity="0" result="BackgroundImageFix"/>
<feColorMatrix in="SourceAlpha" type="matrix" values="0 0 0 0 0 0 0 0 0 0 0 0 0 0 0 0 0 0 127 0" result="hardAlpha"/>
<feOffset dy="4"/>
<feGaussianBlur stdDeviation="2"/>
<feComposite in2="hardAlpha" operator="out"/>
<feColorMatrix type="matrix" values="0 0 0 0 0 0 0 0 0 0 0 0 0 0 0 0 0 0 0.25 0"/>
<feBlend mode="normal" in2="BackgroundImageFix" result="effect1_dropShadow_508_114"/>
<feBlend mode="normal" in="SourceGraphic" in2="effect1_dropShadow_508_114" result="shape"/>
</filter>
<filter id="filter6_d_508_114" x="86.5" y="69.5" width="121.691" height="100" filterUnits="userSpaceOnUse" color-interpolation-filters="sRGB">
<feFlood flood-opacity="0" result="BackgroundImageFix"/>
<feColorMatrix in="SourceAlpha" type="matrix" values="0 0 0 0 0 0 0 0 0 0 0 0 0 0 0 0 0 0 127 0" result="hardAlpha"/>
<feOffset dy="4"/>
<feGaussianBlur stdDeviation="2"/>
<feComposite in2="hardAlpha" operator="out"/>
<feColorMatrix type="matrix" values="0 0 0 0 0 0 0 0 0 0 0 0 0 0 0 0 0 0 0.25 0"/>
<feBlend mode="normal" in2="BackgroundImageFix" result="effect1_dropShadow_508_114"/>
<feBlend mode="normal" in="SourceGraphic" in2="effect1_dropShadow_508_114" result="shape"/>
</filter>
</defs>
</svg>
