<svg width="202" height="174" viewBox="0 0 202 174" fill="none" xmlns="http://www.w3.org/2000/svg">
<path d="M78.5 173.244C105.735 173.244 157 91.2 157 32C109.739 32 90.5154 28 78.5 0C66.4846 28 47.2607 32 0 32C0 91.2 51.265 173.244 78.5 173.244Z" fill="#D94D14"/>
<path d="M78.5 161.122C102.265 161.122 147 91.806 147 40.0813C105.76 40.0813 88.9847 36.5864 78.5 12.1221C68.0153 36.5864 51.2404 40.0813 10.0005 40.0813C10.0005 91.806 54.7346 161.122 78.5 161.122Z" fill="white"/>
<rect x="79" y="105.064" width="21.5426" height="68.9362" rx="2" fill="#D94D14"/>
<rect x="104.133" y="75.6226" width="21.5426" height="98.3777" rx="2" fill="#D94D14"/>
<rect x="129.266" y="39" width="21.5426" height="135" rx="2" fill="#D94D14"/>
<rect x="154.399" y="63.415" width="21.5426" height="110.585" rx="2" fill="#D94D14"/>
<rect x="179.771" y="13" width="22" height="161" rx="2" fill="#D94D14"/>
<path d="M89 156.5C87.6193 156.5 86.5 157.619 86.5 159C86.5 160.381 87.6193 161.5 89 161.5V159V156.5ZM184.344 70.3121C183.412 69.2936 181.831 69.2236 180.812 70.1558L164.214 85.3469C163.196 86.2791 163.126 87.8604 164.058 88.879C164.99 89.8975 166.572 89.9674 167.59 89.0352L182.344 75.5321L195.847 90.2855C196.779 91.3041 198.36 91.374 199.379 90.4418C200.397 89.5096 200.467 87.9283 199.535 86.9097L184.344 70.3121ZM89 159V161.5C126.011 161.5 149.616 153.835 164.192 138.404C178.721 123.025 183.742 100.477 184.998 72.1105L182.5 72L180.002 71.8895C178.758 100.023 173.779 120.975 160.558 134.971C147.384 148.915 125.489 156.5 89 156.5V159Z" fill="white"/>
</svg>
